<svg xmlns="http://www.w3.org/2000/svg" viewBox="0 0 64 64">
  <rect width="64" height="64" rx="14" fill="#6d28d9"/>
  <svg x="9" y="11" width="46" height="42" viewBox="43.5 111.9 287.9 126" preserveAspectRatio="xMidYMid meet">
  <g transform="matrix(1,0,0,1,37,105)">
    <g fill="#ffffff">
      <g transform="translate(0.500002,128.029451)"><path d="M 10.03125 -2.578125 L 10.03125 -87.765625 C 10.03125 -88.628906 10.316406 -89.273438 10.890625 -89.703125 C 11.472656 -90.128906 12.050781 -90.34375 12.625 -90.34375 L 21.375 -90.34375 C 21.945312 -90.34375 22.519531 -90.128906 23.09375 -89.703125 C 23.664062 -89.273438 23.953125 -88.628906 23.953125 -87.765625 L 23.953125 -13.90625 L 61.09375 -13.90625 C 61.945312 -13.90625 62.585938 -13.617188 63.015625 -13.046875 C 63.453125 -12.472656 63.671875 -11.898438 63.671875 -11.328125 L 63.671875 -2.578125 C 63.671875 -2.003906 63.453125 -1.429688 63.015625 -0.859375 C 62.585938 -0.285156 61.945312 0 61.09375 0 L 12.625 0 C 11.757812 0 11.109375 -0.285156 10.671875 -0.859375 C 10.242188 -1.429688 10.03125 -2.003906 10.03125 -2.578125 Z"/></g>
      <g transform="translate(101.305056,128.029451)"><path d="M 25.09375 -87.765625 L 25.09375 -58.9375 L 23.234375 -24.375 C 23.234375 -23.519531 22.945312 -22.875 22.375 -22.4375 C 21.800781 -22.007812 21.226562 -21.796875 20.65625 -21.796875 L 15.625 -21.796875 C 15.050781 -21.796875 14.476562 -22.007812 13.90625 -22.4375 C 13.332031 -22.875 13.046875 -23.519531 13.046875 -24.375 L 11.1875 -58.9375 L 11.1875 -87.765625 C 11.1875 -88.628906 11.472656 -89.273438 12.046875 -89.703125 C 12.617188 -90.128906 13.191406 -90.34375 13.765625 -90.34375 L 22.515625 -90.34375 C 23.085938 -90.34375 23.660156 -90.128906 24.234375 -89.703125 C 24.804688 -89.273438 25.09375 -88.628906 25.09375 -87.765625 Z M 10.03125 -7.171875 C 10.03125 -9.367188 10.816406 -11.234375 12.390625 -12.765625 C 13.972656 -14.296875 15.863281 -15.0625 18.0625 -15.0625 C 20.269531 -15.0625 22.160156 -14.296875 23.734375 -12.765625 C 25.304688 -11.234375 26.09375 -9.367188 26.09375 -7.171875 C 26.09375 -4.972656 25.304688 -3.082031 23.734375 -1.5 C 22.160156 0.0703125 20.269531 0.859375 18.0625 0.859375 C 15.863281 0.859375 13.972656 0.0703125 12.390625 -1.5 C 10.816406 -3.082031 10.03125 -4.972656 10.03125 -7.171875 Z"/></g>
      <g transform="translate(137.440002,128.029451)"><path d="M 64.25 -2.578125 L 23.953125 -64.53125 L 23.953125 -2.578125 C 23.953125 -1.722656 23.664062 -1.078125 23.09375 -0.640625 C 22.519531 -0.210938 21.945312 0 21.375 0 L 12.625 0 C 12.050781 0 11.472656 -0.210938 10.890625 -0.640625 C 10.316406 -1.078125 10.03125 -1.722656 10.03125 -2.578125 L 10.03125 -87.765625 C 10.03125 -88.628906 10.316406 -89.273438 10.890625 -89.703125 C 11.472656 -90.128906 12.050781 -90.34375 12.625 -90.34375 L 21.21875 -90.34375 C 21.789062 -90.34375 22.410156 -90.101562 23.078125 -89.625 C 23.753906 -89.144531 24.332031 -88.523438 24.8125 -87.765625 L 65.390625 -25.8125 L 65.390625 -87.765625 C 65.390625 -88.628906 65.675781 -89.273438 66.25 -89.703125 C 66.820312 -90.128906 67.394531 -90.34375 67.96875 -90.34375 L 76.71875 -90.34375 C 77.289062 -90.34375 77.863281 -90.128906 78.4375 -89.703125 C 79.007812 -89.273438 79.296875 -88.628906 79.296875 -87.765625 L 79.296875 -2.578125 C 79.296875 -1.722656 79.007812 -1.078125 78.4375 -0.640625 C 77.863281 -0.210938 77.289062 0 76.71875 0 L 67.96875 0 C 66.726562 0 65.488281 -0.859375 64.25 -2.578125 Z"/></g>
      <g transform="translate(226.773631,128.029451)"><path d="M 23.953125 -13.90625 L 61.09375 -13.90625 C 61.945312 -13.90625 62.585938 -13.617188 63.015625 -13.046875 C 63.453125 -12.472656 63.671875 -11.898438 63.671875 -11.328125 L 63.671875 -2.578125 C 63.671875 -2.003906 63.453125 -1.429688 63.015625 -0.859375 C 62.585938 -0.285156 61.945312 0 61.09375 0 L 12.625 0 C 11.757812 0 11.109375 -0.285156 10.671875 -0.859375 C 10.242188 -1.429688 10.03125 -2.003906 10.03125 -2.578125 L 10.03125 -87.765625 C 10.03125 -88.335938 10.242188 -88.910156 10.671875 -89.484375 C 11.109375 -90.054688 11.757812 -90.34375 12.625 -90.34375 L 61.09375 -90.34375 C 61.945312 -90.34375 62.585938 -90.054688 63.015625 -89.484375 C 63.453125 -88.910156 63.671875 -88.335938 63.671875 -87.765625 L 63.671875 -79.015625 C 63.671875 -78.441406 63.453125 -77.867188 63.015625 -77.296875 C 62.585938 -76.722656 61.945312 -76.4375 61.09375 -76.4375 L 23.953125 -76.4375 L 23.953125 -51.34375 L 54.34375 -51.34375 C 55.207031 -51.34375 55.851562 -51.054688 56.28125 -50.484375 C 56.71875 -49.910156 56.9375 -49.335938 56.9375 -48.765625 L 56.9375 -40.015625 C 56.9375 -39.441406 56.71875 -38.863281 56.28125 -38.28125 C 55.851562 -37.707031 55.207031 -37.421875 54.34375 -37.421875 L 23.953125 -37.421875 Z"/></g>
      <g transform="translate(105.116881,36.96233)"><path d="M -25.09375 87.765625 L -25.09375 58.9375 L -23.234375 24.375 C -23.234375 23.519531 -22.945312 22.875 -22.375 22.4375 C -21.800781 22.007812 -21.226562 21.796875 -20.65625 21.796875 L -15.625 21.796875 C -15.050781 21.796875 -14.476562 22.007812 -13.90625 22.4375 C -13.332031 22.875 -13.046875 23.519531 -13.046875 24.375 L -11.1875 58.9375 L -11.1875 87.765625 C -11.1875 88.628906 -11.472656 89.273438 -12.046875 89.703125 C -12.617188 90.128906 -13.191406 90.34375 -13.765625 90.34375 L -22.515625 90.34375 C -23.085938 90.34375 -23.660156 90.128906 -24.234375 89.703125 C -24.804688 89.273438 -25.09375 88.628906 -25.09375 87.765625 Z M -10.03125 7.171875 C -10.03125 9.367188 -10.816406 11.234375 -12.390625 12.765625 C -13.972656 14.296875 -15.863281 15.0625 -18.0625 15.0625 C -20.269531 15.0625 -22.160156 14.296875 -23.734375 12.765625 C -25.304688 11.234375 -26.09375 9.367188 -26.09375 7.171875 C -26.09375 4.972656 -25.304688 3.082031 -23.734375 1.5 C -22.160156 -0.0703125 -20.269531 -0.859375 -18.0625 -0.859375 C -15.863281 -0.859375 -13.972656 -0.0703125 -12.390625 1.5 C -10.816406 3.082031 -10.03125 4.972656 -10.03125 7.171875 Z"/></g>
    </g>
  </g>
</svg>
</svg>